<mxfile host="drawio-plugin" modified="2022-06-13T21:36:24.080Z" agent="5.0 (Windows NT 6.2; Win64; x64) AppleWebKit/537.36 (KHTML, like Gecko) Chrome/89.0.4389.114 Safari/537.36" version="15.5.4" etag="715Jxyh27hCJYtuR-beb" type="embed"><diagram id="mrr0qxITVwM2xC_Y0Boq" name="Page-1"><mxGraphModel dx="1462" dy="1667" grid="1" gridSize="10" guides="1" tooltips="1" connect="1" arrows="1" fold="1" page="1" pageScale="1" pageWidth="850" pageHeight="1100" math="0" shadow="0"><root><mxCell id="0"/><mxCell id="1" parent="0"/><mxCell id="27" value="" style="rounded=0;whiteSpace=wrap;html=1;dashed=1;fillColor=none;strokeColor=#000066;strokeWidth=7;" vertex="1" parent="1"><mxGeometry x="-90" y="120" width="1020" height="120" as="geometry"/></mxCell><mxCell id="2" value="part_arm_driver" style="rounded=1;whiteSpace=wrap;html=1;fontSize=16;verticalAlign=top;" vertex="1" parent="1"><mxGeometry x="220" y="-182.5" width="380" height="195" as="geometry"/></mxCell><mxCell id="3" value="- Содержит структуры, необходимые для описания части руки (Локтвой сустав, два привода в плече);&lt;br&gt;- Содержит функции для управления частью руки." style="rounded=0;whiteSpace=wrap;html=1;fontSize=16;fillColor=#a20025;fontColor=#ffffff;strokeColor=#6F0000;align=left;" vertex="1" parent="1"><mxGeometry x="-160" y="-160" width="270" height="150" as="geometry"/></mxCell><mxCell id="4" value="" style="endArrow=none;dashed=1;html=1;fontSize=16;" edge="1" parent="1" source="3" target="2"><mxGeometry width="50" height="50" relative="1" as="geometry"><mxPoint x="320" y="365" as="sourcePoint"/><mxPoint x="360" y="365" as="targetPoint"/></mxGeometry></mxCell><mxCell id="5" value="" style="edgeStyle=none;html=1;fontSize=16;entryX=0.5;entryY=0;entryDx=0;entryDy=0;exitX=0.5;exitY=1;exitDx=0;exitDy=0;" edge="1" parent="1" source="2" target="11"><mxGeometry relative="1" as="geometry"><mxPoint x="410.0033333333333" y="95" as="sourcePoint"/><mxPoint x="680" y="160" as="targetPoint"/></mxGeometry></mxCell><mxCell id="6" value="" style="edgeStyle=none;html=1;fontSize=16;entryX=0.5;entryY=0;entryDx=0;entryDy=0;exitX=0.5;exitY=1;exitDx=0;exitDy=0;" edge="1" parent="1" source="2" target="9"><mxGeometry relative="1" as="geometry"><mxPoint x="409.50333333333333" y="95" as="sourcePoint"/><mxPoint x="410" y="240" as="targetPoint"/></mxGeometry></mxCell><mxCell id="7" value="" style="edgeStyle=none;html=1;fontSize=16;entryX=0.5;entryY=0;entryDx=0;entryDy=0;exitX=0.5;exitY=1;exitDx=0;exitDy=0;" edge="1" parent="1" source="2" target="8"><mxGeometry relative="1" as="geometry"><mxPoint x="409.50333333333333" y="95" as="sourcePoint"/><mxPoint x="240" y="240" as="targetPoint"/></mxGeometry></mxCell><mxCell id="8" value="elbow_driver" style="rounded=1;whiteSpace=wrap;html=1;fontSize=16;verticalAlign=top;" vertex="1" parent="1"><mxGeometry x="100" y="170" width="120" height="40" as="geometry"/></mxCell><mxCell id="9" value="shoudler_horizontal_driver" style="rounded=1;whiteSpace=wrap;html=1;fontSize=16;verticalAlign=top;" vertex="1" parent="1"><mxGeometry x="300" y="170" width="220" height="40" as="geometry"/></mxCell><mxCell id="11" value="shoudler_vertical_driver" style="rounded=1;whiteSpace=wrap;html=1;fontSize=16;verticalAlign=top;" vertex="1" parent="1"><mxGeometry x="570" y="170" width="220" height="40" as="geometry"/></mxCell><mxCell id="15" value="" style="group" vertex="1" connectable="0" parent="1"><mxGeometry x="70" y="360" width="180" height="130" as="geometry"/></mxCell><mxCell id="16" value="arm_control_system" style="rounded=1;whiteSpace=wrap;html=1;fontSize=16;dashed=1;verticalAlign=top;" vertex="1" parent="15"><mxGeometry width="180" height="130" as="geometry"/></mxCell><mxCell id="25" value="PID" style="rounded=1;whiteSpace=wrap;html=1;fontSize=16;verticalAlign=top;" vertex="1" parent="15"><mxGeometry x="30" y="27.37" width="120" height="22.63" as="geometry"/></mxCell><mxCell id="20" value="" style="edgeStyle=none;html=1;fontSize=16;exitX=0.5;exitY=1;exitDx=0;exitDy=0;entryX=0.5;entryY=0;entryDx=0;entryDy=0;" edge="1" parent="1" source="9" target="39"><mxGeometry relative="1" as="geometry"><mxPoint x="409.2833333333333" y="280.0000000000002" as="sourcePoint"/><mxPoint x="410" y="360" as="targetPoint"/></mxGeometry></mxCell><mxCell id="21" value="" style="edgeStyle=none;html=1;fontSize=16;exitX=0.5;exitY=1;exitDx=0;exitDy=0;entryX=0.5;entryY=0;entryDx=0;entryDy=0;" edge="1" parent="1" source="11" target="42"><mxGeometry relative="1" as="geometry"><mxPoint x="429.50333333333333" y="115.00000000000023" as="sourcePoint"/><mxPoint x="680" y="360" as="targetPoint"/></mxGeometry></mxCell><mxCell id="22" value="" style="edgeStyle=none;html=1;fontSize=16;exitX=0.5;exitY=1;exitDx=0;exitDy=0;entryX=0.5;entryY=0;entryDx=0;entryDy=0;" edge="1" parent="1" source="8" target="16"><mxGeometry relative="1" as="geometry"><mxPoint x="690" y="210" as="sourcePoint"/><mxPoint x="410" y="380" as="targetPoint"/></mxGeometry></mxCell><mxCell id="23" value="- Читает значения с энкодер;&lt;br&gt;- Нормализует занчение энкодера;&lt;br&gt;- Если целевой угол не достигнут, вырабатывает управляющий сигнал." style="rounded=0;whiteSpace=wrap;html=1;fontSize=16;fillColor=#a20025;fontColor=#ffffff;strokeColor=#6F0000;align=left;" vertex="1" parent="1"><mxGeometry x="-500" y="345" width="270" height="150" as="geometry"/></mxCell><mxCell id="24" value="" style="endArrow=none;dashed=1;html=1;fontSize=16;exitX=1;exitY=0.5;exitDx=0;exitDy=0;entryX=0;entryY=0.5;entryDx=0;entryDy=0;" edge="1" parent="1" source="23" target="44"><mxGeometry width="50" height="50" relative="1" as="geometry"><mxPoint x="160" y="18.191489361702224" as="sourcePoint"/><mxPoint x="217.27272727272748" y="45" as="targetPoint"/></mxGeometry></mxCell><mxCell id="28" value="- Отдельные файлы с описанием части руки;&lt;br&gt;- Содержат в себе сформированные описания частей рук;&lt;br&gt;- Содержат высокоуровневые функции (Н-р: elbow_init, elbow_set_angle и тд)" style="rounded=0;whiteSpace=wrap;html=1;fontSize=16;fillColor=#a20025;fontColor=#ffffff;strokeColor=#6F0000;align=left;" vertex="1" parent="1"><mxGeometry x="-520" y="105" width="310" height="150" as="geometry"/></mxCell><mxCell id="29" value="" style="endArrow=none;dashed=1;html=1;fontSize=16;entryX=0;entryY=0.5;entryDx=0;entryDy=0;" edge="1" parent="1" source="28" target="27"><mxGeometry width="50" height="50" relative="1" as="geometry"><mxPoint x="-280" y="515" as="sourcePoint"/><mxPoint x="-150" y="190" as="targetPoint"/></mxGeometry></mxCell><mxCell id="35" value="lld_red_driver" style="rounded=1;whiteSpace=wrap;html=1;fontSize=16;verticalAlign=top;" vertex="1" parent="1"><mxGeometry x="450" y="-105" width="120" height="40" as="geometry"/></mxCell><mxCell id="34" value="lld_bb_driver" style="rounded=1;whiteSpace=wrap;html=1;fontSize=16;verticalAlign=top;" vertex="1" parent="1"><mxGeometry x="250" y="-105" width="120" height="40" as="geometry"/></mxCell><mxCell id="38" value="" style="group" vertex="1" connectable="0" parent="1"><mxGeometry x="320" y="360" width="180" height="130" as="geometry"/></mxCell><mxCell id="39" value="arm_control_system" style="rounded=1;whiteSpace=wrap;html=1;fontSize=16;dashed=1;verticalAlign=top;" vertex="1" parent="38"><mxGeometry width="180" height="130" as="geometry"/></mxCell><mxCell id="40" value="PID" style="rounded=1;whiteSpace=wrap;html=1;fontSize=16;verticalAlign=top;" vertex="1" parent="38"><mxGeometry x="30" y="27.37" width="120" height="22.63" as="geometry"/></mxCell><mxCell id="41" value="" style="group" vertex="1" connectable="0" parent="1"><mxGeometry x="590" y="360" width="180" height="130" as="geometry"/></mxCell><mxCell id="42" value="arm_control_system" style="rounded=1;whiteSpace=wrap;html=1;fontSize=16;dashed=1;verticalAlign=top;" vertex="1" parent="41"><mxGeometry width="180" height="130" as="geometry"/></mxCell><mxCell id="43" value="PID" style="rounded=1;whiteSpace=wrap;html=1;fontSize=16;verticalAlign=top;" vertex="1" parent="41"><mxGeometry x="30" y="27.37" width="120" height="22.63" as="geometry"/></mxCell><mxCell id="44" value="" style="rounded=0;whiteSpace=wrap;html=1;dashed=1;fillColor=none;strokeColor=#000066;strokeWidth=7;" vertex="1" parent="1"><mxGeometry x="-90" y="320" width="1020" height="200" as="geometry"/></mxCell></root></mxGraphModel></diagram></mxfile>